<svg xmlns="http://www.w3.org/2000/svg" xmlns:xlink="http://www.w3.org/1999/xlink" width="500" zoomAndPan="magnify" viewBox="0 0 375 374.999991" height="500" preserveAspectRatio="xMidYMid meet" version="1.0"><defs><g/><clipPath id="id1"><path d="M 168.511719 229.949219 L 206.761719 229.949219 L 206.761719 268.199219 L 168.511719 268.199219 Z M 168.511719 229.949219 " clip-rule="nonzero"/></clipPath></defs><g fill="#f4f6fc" fill-opacity="1"><g transform="translate(35.165184, 62.560701)"><g><path d="M 3.300781 0 L 7.90625 0 L 7.90625 -6.652344 L 13.109375 -12.039062 L 21.011719 0 L 26.742188 0 L 16.296875 -15.121094 L 26.542969 -25.617188 L 20.378906 -25.617188 L 7.90625 -12.253906 L 7.90625 -25.617188 L 3.300781 -25.617188 Z M 3.300781 0 "/></g></g></g><g fill="#f4f6fc" fill-opacity="1"><g transform="translate(62.19512, 62.560701)"><g><path d="M 3.300781 0 L 7.90625 0 L 7.90625 -25.617188 L 3.300781 -25.617188 Z M 3.300781 0 "/></g></g></g><g fill="#f4f6fc" fill-opacity="1"><g transform="translate(73.398675, 62.560701)"><g><path d="M 8.140625 0 L 12.582031 0 L 18.148438 -16.859375 L 23.730469 0 L 28.171875 0 L 35.859375 -25.617188 L 31.074219 -25.617188 L 25.617188 -6.761719 L 19.941406 -24.128906 L 16.371094 -24.128906 L 10.695312 -6.761719 L 5.238281 -25.617188 L 0.453125 -25.617188 Z M 8.140625 0 "/></g></g></g><g fill="#f4f6fc" fill-opacity="1"><g transform="translate(109.71052, 62.560701)"><g><path d="M 3.300781 0 L 7.90625 0 L 7.90625 -25.617188 L 3.300781 -25.617188 Z M 3.300781 0 "/></g></g></g><g fill="#f4f6fc" fill-opacity="1"><g transform="translate(120.914075, 62.560701)"><g/></g></g><g fill="#f4f6fc" fill-opacity="1"><g transform="translate(129.83341, 62.560701)"><g><path d="M 10.625 0.289062 C 15.519531 0.289062 19.523438 -2.628906 19.523438 -7.46875 C 19.523438 -15.972656 7.125 -14.339844 7.125 -19.164062 C 7.125 -20.792969 8.539062 -21.898438 10.351562 -21.898438 C 12.074219 -21.898438 13.597656 -20.902344 14.484375 -19.164062 L 18.308594 -21.5 C 16.550781 -24.621094 13.667969 -25.996094 10.515625 -25.996094 C 6.199219 -25.996094 2.519531 -23.460938 2.519531 -18.925781 C 2.519531 -10.585938 14.921875 -12.363281 14.921875 -7.050781 C 14.921875 -5.238281 13.433594 -3.789062 10.695312 -3.789062 C 7.976562 -3.789062 5.710938 -5.203125 5.382812 -8.394531 L 0.816406 -7.234375 C 1.632812 -2.195312 6.089844 0.289062 10.625 0.289062 Z M 10.625 0.289062 "/></g></g></g><g fill="#f4f6fc" fill-opacity="1"><g transform="translate(150.445775, 62.560701)"><g><path d="M 13.851562 0.363281 C 22.316406 0.363281 26.214844 -5.835938 26.214844 -12.816406 C 26.214844 -19.796875 22.316406 -25.996094 13.851562 -25.996094 C 5.382812 -25.996094 1.488281 -19.796875 1.488281 -12.816406 C 1.488281 -5.835938 5.382812 0.363281 13.851562 0.363281 Z M 13.851562 -3.714844 C 8.359375 -3.714844 6.34375 -7.976562 6.34375 -12.816406 C 6.34375 -17.640625 8.359375 -21.898438 13.851562 -21.898438 C 19.34375 -21.898438 21.355469 -17.640625 21.355469 -12.816406 C 21.355469 -7.976562 19.34375 -3.714844 13.851562 -3.714844 Z M 13.851562 -3.714844 "/></g></g></g><g fill="#f4f6fc" fill-opacity="1"><g transform="translate(178.146474, 62.560701)"><g><path d="M 3.300781 0 L 7.90625 0 L 7.90625 -10.695312 L 19.871094 -10.695312 L 19.871094 -14.921875 L 7.90625 -14.921875 L 7.90625 -21.390625 L 21.464844 -21.390625 L 21.464844 -25.617188 L 3.300781 -25.617188 Z M 3.300781 0 "/></g></g></g><g fill="#f4f6fc" fill-opacity="1"><g transform="translate(200.535455, 62.560701)"><g><path d="M 8.394531 0 L 13 0 L 13 -21.5 L 21.011719 -21.5 L 21.011719 -25.617188 L 0.363281 -25.617188 L 0.363281 -21.5 L 8.394531 -21.5 Z M 8.394531 0 "/></g></g></g><g fill="#f4f6fc" fill-opacity="1"><g transform="translate(221.927356, 62.560701)"><g><path d="M 8.140625 0 L 12.582031 0 L 18.148438 -16.859375 L 23.730469 0 L 28.171875 0 L 35.859375 -25.617188 L 31.074219 -25.617188 L 25.617188 -6.761719 L 19.941406 -24.128906 L 16.371094 -24.128906 L 10.695312 -6.761719 L 5.238281 -25.617188 L 0.453125 -25.617188 Z M 8.140625 0 "/></g></g></g><g fill="#f4f6fc" fill-opacity="1"><g transform="translate(258.239213, 62.560701)"><g><path d="M 0.21875 0 L 5.238281 0 L 7.234375 -5.566406 L 17.1875 -5.566406 L 19.164062 0 L 24.128906 0 L 13.921875 -25.617188 L 10.480469 -25.617188 Z M 8.792969 -9.5 L 12.21875 -18.855469 L 15.628906 -9.5 Z M 8.792969 -9.5 "/></g></g></g><g fill="#f4f6fc" fill-opacity="1"><g transform="translate(282.586085, 62.560701)"><g><path d="M 3.300781 0.0351562 L 7.90625 0.0351562 L 7.90625 -10.949219 L 10.984375 -10.949219 L 17.296875 0.0351562 L 22.570312 0.0351562 L 15.445312 -11.402344 C 18.347656 -12.398438 20.449219 -14.847656 20.449219 -18.074219 C 20.449219 -22.878906 16.371094 -25.617188 11.585938 -25.617188 L 3.300781 -25.617188 Z M 7.941406 -14.703125 L 7.941406 -21.5 L 11.621094 -21.5 C 14.25 -21.5 15.898438 -20.125 15.898438 -18.003906 C 15.898438 -16.082031 14.449219 -14.8125 12 -14.703125 Z M 7.941406 -14.703125 "/></g></g></g><g fill="#f4f6fc" fill-opacity="1"><g transform="translate(305.573314, 62.560701)"><g><path d="M 3.300781 0 L 20.339844 0 L 20.339844 -4.351562 L 7.90625 -4.351562 L 7.90625 -10.695312 L 19.488281 -10.695312 L 19.488281 -14.921875 L 7.90625 -14.921875 L 7.90625 -21.390625 L 20.339844 -21.390625 L 20.339844 -25.617188 L 3.300781 -25.617188 Z M 3.300781 0 "/></g></g></g><g fill="#f4f6fc" fill-opacity="1"><g transform="translate(75.27832, 310.698935)"><g><path d="M 1.953125 0 L 4.320312 0 L 4.320312 -6.382812 C 4.320312 -8.53125 5.542969 -10.253906 7.566406 -10.253906 C 9.53125 -10.253906 9.972656 -8.679688 9.972656 -7.105469 L 9.972656 0 L 12.375 0 L 12.375 -7.433594 C 12.375 -9.996094 11.132812 -12.425781 8.082031 -12.425781 C 6.675781 -12.425781 5.210938 -11.742188 4.320312 -10.460938 L 4.320312 -17.246094 L 1.953125 -17.246094 Z M 1.953125 0 "/></g></g></g><g fill="#f4f6fc" fill-opacity="1"><g transform="translate(89.253192, 310.698935)"><g><path d="M 6.726562 0.207031 C 8.714844 0.207031 10.214844 -0.425781 11.546875 -1.832031 L 9.910156 -3.210938 C 9.007812 -2.222656 7.984375 -1.902344 6.726562 -1.902344 C 4.554688 -1.902344 3.515625 -3.40625 3.40625 -5.320312 L 11.839844 -5.320312 C 11.875 -5.515625 11.914062 -5.957031 11.914062 -6.359375 C 11.914062 -9.128906 10.632812 -12.402344 6.519531 -12.402344 C 2.710938 -12.402344 0.902344 -9.265625 0.902344 -6.042969 C 0.902344 -2.746094 2.78125 0.207031 6.726562 0.207031 Z M 3.40625 -7.117188 C 3.578125 -8.921875 4.503906 -10.4375 6.503906 -10.4375 C 8.570312 -10.4375 9.507812 -8.972656 9.617188 -7.117188 Z M 3.40625 -7.117188 "/></g></g></g><g fill="#f4f6fc" fill-opacity="1"><g transform="translate(102.080782, 310.698935)"><g><path d="M 4.113281 0.242188 C 4.773438 0.242188 5.527344 0.121094 6.03125 0 L 6.03125 -1.953125 C 5.738281 -1.890625 5.320312 -1.855469 5.015625 -1.855469 C 4.40625 -1.855469 4.234375 -2.40625 4.234375 -2.601562 L 4.234375 -17.246094 L 1.867188 -17.246094 L 1.867188 -2.441406 C 1.867188 -0.660156 2.476562 0.242188 4.113281 0.242188 Z M 4.113281 0.242188 "/></g></g></g><g fill="#f4f6fc" fill-opacity="1"><g transform="translate(108.720369, 310.698935)"><g><path d="M 4.113281 0.242188 C 4.773438 0.242188 5.527344 0.121094 6.03125 0 L 6.03125 -1.953125 C 5.738281 -1.890625 5.320312 -1.855469 5.015625 -1.855469 C 4.40625 -1.855469 4.234375 -2.40625 4.234375 -2.601562 L 4.234375 -17.246094 L 1.867188 -17.246094 L 1.867188 -2.441406 C 1.867188 -0.660156 2.476562 0.242188 4.113281 0.242188 Z M 4.113281 0.242188 "/></g></g></g><g fill="#f4f6fc" fill-opacity="1"><g transform="translate(115.359956, 310.698935)"><g><path d="M 6.835938 0.242188 C 10.421875 0.242188 12.851562 -2.660156 12.851562 -6.128906 C 12.851562 -9.582031 10.421875 -12.449219 6.835938 -12.449219 C 3.234375 -12.449219 0.84375 -9.582031 0.84375 -6.128906 C 0.84375 -2.660156 3.234375 0.242188 6.835938 0.242188 Z M 6.847656 -1.757812 C 4.359375 -1.757812 3.285156 -3.882812 3.285156 -6.128906 C 3.285156 -8.359375 4.359375 -10.4375 6.847656 -10.4375 C 9.351562 -10.4375 10.410156 -8.359375 10.410156 -6.128906 C 10.410156 -3.90625 9.351562 -1.757812 6.847656 -1.757812 Z M 6.847656 -1.757812 "/></g></g></g><g fill="#f4f6fc" fill-opacity="1"><g transform="translate(129.066315, 310.698935)"><g><path d="M 12.363281 4.246094 C 13.78125 4.246094 14.953125 4.027344 16.113281 3.613281 L 15.390625 1.683594 C 14.453125 1.976562 13.523438 2.160156 12.390625 2.160156 C 7.605469 2.160156 3.5625 -0.914062 3.5625 -6.371094 C 3.5625 -11.460938 7.105469 -15.5 12.609375 -15.5 C 18.027344 -15.5 21.421875 -11.570312 21.421875 -6.785156 C 21.421875 -4.34375 20.53125 -1.355469 17.796875 -1.355469 C 16.757812 -1.355469 16.429688 -1.769531 16.429688 -2.929688 C 16.429688 -5.308594 17.757812 -9.628906 18.246094 -12.207031 L 16.148438 -12.207031 L 15.867188 -10.800781 C 15.429688 -11.984375 14.230469 -12.804688 12.632812 -12.804688 C 8.996094 -12.804688 6.859375 -8.640625 6.859375 -5.40625 C 6.859375 -2.894531 8.140625 -0.671875 10.8125 -0.671875 C 12.179688 -0.671875 13.5625 -1.269531 14.550781 -2.34375 C 14.5 -0.414062 15.722656 0.78125 17.882812 0.78125 C 21.703125 0.78125 23.433594 -3.003906 23.433594 -6.75 C 23.433594 -12.632812 19.1875 -17.480469 12.585938 -17.480469 C 5.96875 -17.480469 1.539062 -12.570312 1.539062 -6.324219 C 1.539062 0.257812 6.445312 4.246094 12.363281 4.246094 Z M 11.023438 -2.746094 C 9.484375 -2.746094 8.800781 -3.746094 8.800781 -5.332031 C 8.800781 -7.640625 10.226562 -10.714844 12.960938 -10.714844 C 14.523438 -10.714844 15.160156 -9.742188 15.160156 -8.179688 C 15.160156 -5.859375 13.757812 -2.746094 11.023438 -2.746094 Z M 11.023438 -2.746094 "/></g></g></g><g fill="#f4f6fc" fill-opacity="1"><g transform="translate(153.989176, 310.698935)"><g><path d="M 5.445312 0.242188 C 7.640625 0.242188 9.886719 -0.976562 9.886719 -3.648438 C 9.886719 -8.117188 3.492188 -6.8125 3.492188 -9.179688 C 3.492188 -9.972656 4.210938 -10.570312 5.359375 -10.570312 C 6.675781 -10.570312 7.46875 -9.835938 7.945312 -8.921875 L 9.742188 -9.910156 C 8.910156 -11.460938 7.421875 -12.449219 5.445312 -12.449219 C 3.234375 -12.449219 1.269531 -11.242188 1.269531 -8.875 C 1.269531 -4.664062 7.578125 -6.164062 7.578125 -3.453125 C 7.578125 -2.453125 6.761719 -1.707031 5.382812 -1.707031 C 3.746094 -1.707031 2.929688 -2.769531 2.550781 -3.871094 L 0.621094 -2.964844 C 1.195312 -1.21875 3.015625 0.242188 5.445312 0.242188 Z M 5.445312 0.242188 "/></g></g></g><g fill="#f4f6fc" fill-opacity="1"><g transform="translate(164.827325, 310.698935)"><g><path d="M 6.835938 0.242188 C 10.421875 0.242188 12.851562 -2.660156 12.851562 -6.128906 C 12.851562 -9.582031 10.421875 -12.449219 6.835938 -12.449219 C 3.234375 -12.449219 0.84375 -9.582031 0.84375 -6.128906 C 0.84375 -2.660156 3.234375 0.242188 6.835938 0.242188 Z M 6.847656 -1.757812 C 4.359375 -1.757812 3.285156 -3.882812 3.285156 -6.128906 C 3.285156 -8.359375 4.359375 -10.4375 6.847656 -10.4375 C 9.351562 -10.4375 10.410156 -8.359375 10.410156 -6.128906 C 10.410156 -3.90625 9.351562 -1.757812 6.847656 -1.757812 Z M 6.847656 -1.757812 "/></g></g></g><g fill="#f4f6fc" fill-opacity="1"><g transform="translate(178.533684, 310.698935)"><g><path d="M 2.550781 0 L 4.957031 0 L 4.957031 -10.226562 L 8.152344 -10.226562 L 8.152344 -12.195312 L 4.957031 -12.195312 L 4.957031 -13.855469 C 4.957031 -14.964844 5.566406 -15.441406 6.347656 -15.441406 C 6.738281 -15.441406 7.152344 -15.304688 7.554688 -15.097656 L 8.238281 -17.015625 C 7.628906 -17.308594 6.910156 -17.503906 6.140625 -17.503906 C 4.234375 -17.503906 2.5625 -16.332031 2.5625 -14.050781 L 2.5625 -12.195312 L 0.328125 -12.195312 L 0.328125 -10.226562 L 2.550781 -10.226562 Z M 2.550781 0 "/></g></g></g><g fill="#f4f6fc" fill-opacity="1"><g transform="translate(186.869789, 310.698935)"><g><path d="M 5.75 0.242188 C 6.542969 0.242188 7.300781 0.0859375 7.652344 -0.0625 L 7.652344 -2.160156 C 7.261719 -1.964844 6.714844 -1.78125 6.199219 -1.78125 C 5.371094 -1.78125 4.734375 -2.28125 4.734375 -3.539062 L 4.734375 -10.226562 L 7.824219 -10.226562 L 7.824219 -12.195312 L 4.734375 -12.195312 L 4.734375 -16.976562 L 2.417969 -15.074219 L 2.417969 -12.195312 L 0.425781 -12.195312 L 0.425781 -10.226562 L 2.390625 -10.226562 L 2.390625 -3.296875 C 2.390625 -1.148438 3.480469 0.242188 5.75 0.242188 Z M 5.75 0.242188 "/></g></g></g><g fill="#f4f6fc" fill-opacity="1"><g transform="translate(195.547637, 310.698935)"><g><path d="M 3.953125 0.0234375 L 6.152344 0.0234375 L 8.8125 -9.007812 L 11.449219 0 L 13.644531 0 L 17.222656 -12.195312 L 14.707031 -12.195312 L 12.402344 -3.441406 L 9.835938 -12.195312 L 7.761719 -12.195312 L 5.199219 -3.417969 L 2.894531 -12.195312 L 0.378906 -12.195312 Z M 3.953125 0.0234375 "/></g></g></g><g fill="#f4f6fc" fill-opacity="1"><g transform="translate(213.135225, 310.698935)"><g><path d="M 4.992188 0.242188 C 6.589844 0.242188 8.082031 -0.378906 9.042969 -2.0625 L 9.167969 0 L 11.132812 0 L 11.132812 -7.445312 C 11.132812 -10.410156 9.335938 -12.449219 6.128906 -12.449219 C 3.929688 -12.449219 2.40625 -11.484375 1.28125 -9.921875 L 3.050781 -8.605469 C 3.613281 -9.472656 4.613281 -10.386719 6.1875 -10.386719 C 8.105469 -10.386719 8.910156 -9.058594 8.910156 -7.117188 L 5.945312 -7.117188 C 2.820312 -7.117188 0.816406 -6.101562 0.816406 -3.5625 C 0.816406 -1.148438 2.601562 0.242188 4.992188 0.242188 Z M 5.296875 -1.757812 C 4.089844 -1.757812 3.246094 -2.34375 3.246094 -3.492188 C 3.246094 -4.710938 4.199219 -5.371094 6.113281 -5.371094 L 8.910156 -5.371094 C 8.886719 -3.613281 7.421875 -1.757812 5.296875 -1.757812 Z M 5.296875 -1.757812 "/></g></g></g><g fill="#f4f6fc" fill-opacity="1"><g transform="translate(225.852963, 310.698935)"><g><path d="M 1.929688 0 L 4.222656 0 L 4.222656 -5.652344 C 4.222656 -8.667969 5.566406 -10.167969 7.324219 -10.167969 C 7.859375 -10.167969 8.335938 -10.019531 8.738281 -9.714844 L 9.777344 -11.707031 C 9.265625 -12.167969 8.519531 -12.449219 7.691406 -12.449219 C 6.238281 -12.449219 4.832031 -11.570312 4.246094 -10.082031 L 4.246094 -12.195312 L 1.929688 -12.195312 Z M 1.929688 0 "/></g></g></g><g fill="#f4f6fc" fill-opacity="1"><g transform="translate(235.678093, 310.698935)"><g><path d="M 6.726562 0.207031 C 8.714844 0.207031 10.214844 -0.425781 11.546875 -1.832031 L 9.910156 -3.210938 C 9.007812 -2.222656 7.984375 -1.902344 6.726562 -1.902344 C 4.554688 -1.902344 3.515625 -3.40625 3.40625 -5.320312 L 11.839844 -5.320312 C 11.875 -5.515625 11.914062 -5.957031 11.914062 -6.359375 C 11.914062 -9.128906 10.632812 -12.402344 6.519531 -12.402344 C 2.710938 -12.402344 0.902344 -9.265625 0.902344 -6.042969 C 0.902344 -2.746094 2.78125 0.207031 6.726562 0.207031 Z M 3.40625 -7.117188 C 3.578125 -8.921875 4.503906 -10.4375 6.503906 -10.4375 C 8.570312 -10.4375 9.507812 -8.972656 9.617188 -7.117188 Z M 3.40625 -7.117188 "/></g></g></g><g fill="#f4f6fc" fill-opacity="1"><g transform="translate(248.505683, 310.698935)"><g><path d="M 2.648438 0 L 5.347656 0 L 5.347656 -2.769531 L 2.648438 -2.769531 Z M 2.648438 0 "/></g></g></g><g fill="#f4f6fc" fill-opacity="1"><g transform="translate(256.500045, 310.698935)"><g><path d="M 1.953125 0 L 4.320312 0 L 4.320312 -3.578125 L 6.589844 -6.089844 L 10.242188 0 L 13.046875 0 L 8.128906 -7.605469 L 12.390625 -12.195312 L 9.363281 -12.195312 L 4.320312 -6.324219 L 4.320312 -17.246094 L 1.953125 -17.246094 Z M 1.953125 0 "/></g></g></g><g fill="#f4f6fc" fill-opacity="1"><g transform="translate(269.693789, 310.698935)"><g><path d="M 1.832031 -14.707031 L 4.382812 -14.707031 L 4.382812 -17.246094 L 1.832031 -17.246094 Z M 1.929688 0 L 4.285156 0 L 4.285156 -12.195312 L 1.929688 -12.195312 Z M 1.929688 0 "/></g></g></g><g fill="#f4f6fc" fill-opacity="1"><g transform="translate(275.906191, 310.698935)"><g><path d="M 3.953125 0.0234375 L 6.152344 0.0234375 L 8.8125 -9.007812 L 11.449219 0 L 13.644531 0 L 17.222656 -12.195312 L 14.707031 -12.195312 L 12.402344 -3.441406 L 9.835938 -12.195312 L 7.761719 -12.195312 L 5.199219 -3.417969 L 2.894531 -12.195312 L 0.378906 -12.195312 Z M 3.953125 0.0234375 "/></g></g></g><g fill="#f4f6fc" fill-opacity="1"><g transform="translate(293.49379, 310.698935)"><g><path d="M 1.832031 -14.707031 L 4.382812 -14.707031 L 4.382812 -17.246094 L 1.832031 -17.246094 Z M 1.929688 0 L 4.285156 0 L 4.285156 -12.195312 L 1.929688 -12.195312 Z M 1.929688 0 "/></g></g></g><g fill="#f4f6fc" fill-opacity="1"><g transform="translate(127.910151, 118.200067)"><g><path d="M 5.078125 0.140625 C 7.363281 0.140625 9.15625 -1.265625 9.15625 -3.515625 C 9.15625 -7.574219 3.164062 -6.863281 3.164062 -9.4375 C 3.164062 -10.414062 4 -11.03125 4.957031 -11.03125 C 5.871094 -11.03125 6.707031 -10.5625 7.179688 -9.648438 L 8.605469 -10.554688 C 7.796875 -11.960938 6.496094 -12.601562 5 -12.601562 C 3.039062 -12.601562 1.398438 -11.363281 1.398438 -9.324219 C 1.398438 -5.421875 7.398438 -6.273438 7.398438 -3.367188 C 7.398438 -2.152344 6.511719 -1.449219 5.097656 -1.449219 C 3.699219 -1.449219 2.46875 -2.179688 2.300781 -3.796875 L 0.570312 -3.332031 C 0.949219 -1.011719 2.96875 0.140625 5.078125 0.140625 Z M 5.078125 0.140625 "/></g></g></g><g fill="#f4f6fc" fill-opacity="1"><g transform="translate(137.780268, 118.200067)"><g><path d="M 1.984375 3.777344 L 3.8125 3.777344 L 8.664062 -8.78125 L 6.800781 -8.78125 L 4.421875 -2.109375 L 2.011719 -8.78125 L 0.140625 -8.78125 L 3.542969 -0.132812 Z M 1.984375 3.777344 "/></g></g><g transform="translate(146.586908, 118.200067)"><g><path d="M 3.917969 0.175781 C 5.5 0.175781 7.117188 -0.703125 7.117188 -2.628906 C 7.117188 -5.84375 2.511719 -4.902344 2.511719 -6.609375 C 2.511719 -7.179688 3.03125 -7.609375 3.859375 -7.609375 C 4.808594 -7.609375 5.378906 -7.082031 5.722656 -6.425781 L 7.011719 -7.136719 C 6.414062 -8.253906 5.34375 -8.964844 3.917969 -8.964844 C 2.328125 -8.964844 0.914062 -8.09375 0.914062 -6.390625 C 0.914062 -3.355469 5.457031 -4.4375 5.457031 -2.488281 C 5.457031 -1.765625 4.867188 -1.230469 3.875 -1.230469 C 2.699219 -1.230469 2.109375 -1.996094 1.835938 -2.785156 L 0.449219 -2.136719 C 0.859375 -0.878906 2.171875 0.175781 3.917969 0.175781 Z M 3.917969 0.175781 "/></g></g><g transform="translate(154.391595, 118.200067)"><g><path d="M 4.140625 0.175781 C 4.710938 0.175781 5.253906 0.0625 5.511719 -0.0429688 L 5.511719 -1.554688 C 5.230469 -1.414062 4.832031 -1.28125 4.464844 -1.28125 C 3.867188 -1.28125 3.410156 -1.644531 3.410156 -2.546875 L 3.410156 -7.363281 L 5.632812 -7.363281 L 5.632812 -8.78125 L 3.410156 -8.78125 L 3.410156 -12.226562 L 1.738281 -10.855469 L 1.738281 -8.78125 L 0.308594 -8.78125 L 0.308594 -7.363281 L 1.722656 -7.363281 L 1.722656 -2.371094 C 1.722656 -0.824219 2.503906 0.175781 4.140625 0.175781 Z M 4.140625 0.175781 "/></g></g></g><g fill="#f4f6fc" fill-opacity="1"><g transform="translate(160.640618, 118.200067)"><g><path d="M 4.84375 0.148438 C 6.273438 0.148438 7.355469 -0.308594 8.3125 -1.316406 L 7.136719 -2.3125 C 6.484375 -1.597656 5.746094 -1.371094 4.84375 -1.371094 C 3.277344 -1.371094 2.53125 -2.453125 2.453125 -3.832031 L 8.523438 -3.832031 C 8.550781 -3.972656 8.578125 -4.289062 8.578125 -4.578125 C 8.578125 -6.574219 7.65625 -8.929688 4.691406 -8.929688 C 1.949219 -8.929688 0.648438 -6.671875 0.648438 -4.351562 C 0.648438 -1.976562 2.003906 0.148438 4.84375 0.148438 Z M 2.453125 -5.125 C 2.574219 -6.425781 3.242188 -7.515625 4.683594 -7.515625 C 6.167969 -7.515625 6.847656 -6.460938 6.925781 -5.125 Z M 2.453125 -5.125 "/></g></g><g transform="translate(169.877922, 118.200067)"><g><path d="M 1.386719 0 L 3.101562 0 L 3.101562 -4.691406 C 3.101562 -6.082031 3.839844 -7.433594 5.160156 -7.433594 C 6.476562 -7.433594 6.792969 -6.285156 6.792969 -5.148438 L 6.792969 0 L 8.515625 0 L 8.515625 -4.84375 C 8.515625 -6.160156 9.253906 -7.433594 10.5625 -7.433594 C 11.890625 -7.433594 12.226562 -6.25 12.226562 -5.113281 L 12.226562 0 L 13.957031 0 L 13.957031 -5.308594 C 13.957031 -7.214844 13.023438 -8.964844 10.808594 -8.964844 C 9.625 -8.964844 8.613281 -8.394531 7.996094 -7.257812 C 7.496094 -8.417969 6.574219 -8.964844 5.414062 -8.964844 C 4.445312 -8.964844 3.558594 -8.453125 3.101562 -7.628906 L 3.101562 -8.78125 L 1.386719 -8.78125 Z M 1.386719 0 "/></g></g></g><g fill="#f4f6fc" fill-opacity="1"><g transform="translate(184.986319, 118.200067)"><g/></g></g><g fill="#f4f6fc" fill-opacity="1"><g transform="translate(189.539054, 118.200067)"><g><path d="M 1.738281 0 L 5.089844 0 C 9.175781 0 11.460938 -2.222656 11.460938 -6.117188 C 11.460938 -10.175781 9.238281 -12.417969 5.105469 -12.417969 L 1.738281 -12.417969 Z M 3.523438 -1.632812 L 3.523438 -10.792969 L 5.070312 -10.792969 C 8.253906 -10.792969 9.675781 -9.296875 9.675781 -6.214844 C 9.675781 -2.945312 7.699219 -1.632812 4.878906 -1.632812 Z M 3.523438 -1.632812 "/></g></g><g transform="translate(201.905264, 118.200067)"><g><path d="M 4.84375 0.148438 C 6.273438 0.148438 7.355469 -0.308594 8.3125 -1.316406 L 7.136719 -2.3125 C 6.484375 -1.597656 5.746094 -1.371094 4.84375 -1.371094 C 3.277344 -1.371094 2.53125 -2.453125 2.453125 -3.832031 L 8.523438 -3.832031 C 8.550781 -3.972656 8.578125 -4.289062 8.578125 -4.578125 C 8.578125 -6.574219 7.65625 -8.929688 4.691406 -8.929688 C 1.949219 -8.929688 0.648438 -6.671875 0.648438 -4.351562 C 0.648438 -1.976562 2.003906 0.148438 4.84375 0.148438 Z M 2.453125 -5.125 C 2.574219 -6.425781 3.242188 -7.515625 4.683594 -7.515625 C 6.167969 -7.515625 6.847656 -6.460938 6.925781 -5.125 Z M 2.453125 -5.125 "/></g></g></g><g fill="#f4f6fc" fill-opacity="1"><g transform="translate(211.142568, 118.200067)"><g><path d="M 3.917969 0.175781 C 5.5 0.175781 7.117188 -0.703125 7.117188 -2.628906 C 7.117188 -5.84375 2.511719 -4.902344 2.511719 -6.609375 C 2.511719 -7.179688 3.03125 -7.609375 3.859375 -7.609375 C 4.808594 -7.609375 5.378906 -7.082031 5.722656 -6.425781 L 7.011719 -7.136719 C 6.414062 -8.253906 5.34375 -8.964844 3.917969 -8.964844 C 2.328125 -8.964844 0.914062 -8.09375 0.914062 -6.390625 C 0.914062 -3.355469 5.457031 -4.4375 5.457031 -2.488281 C 5.457031 -1.765625 4.867188 -1.230469 3.875 -1.230469 C 2.699219 -1.230469 2.109375 -1.996094 1.835938 -2.785156 L 0.449219 -2.136719 C 0.859375 -0.878906 2.171875 0.175781 3.917969 0.175781 Z M 3.917969 0.175781 "/></g></g></g><g fill="#f4f6fc" fill-opacity="1"><g transform="translate(218.947255, 118.200067)"><g><path d="M 1.316406 -10.589844 L 3.15625 -10.589844 L 3.15625 -12.417969 L 1.316406 -12.417969 Z M 1.386719 0 L 3.085938 0 L 3.085938 -8.78125 L 1.386719 -8.78125 Z M 1.386719 0 "/></g></g><g transform="translate(223.420887, 118.200067)"><g><path d="M 4.9375 -1.246094 C 3.542969 -1.433594 2.453125 -1.574219 2.453125 -2.398438 C 2.453125 -2.644531 2.566406 -2.828125 2.777344 -2.96875 C 3.269531 -2.742188 3.832031 -2.617188 4.4375 -2.617188 C 6.308594 -2.617188 7.832031 -3.804688 7.832031 -5.722656 C 7.832031 -6.265625 7.707031 -6.765625 7.480469 -7.199219 L 8.832031 -8.269531 L 7.910156 -9.414062 L 6.589844 -8.242188 C 6.003906 -8.683594 5.246094 -8.929688 4.402344 -8.929688 C 2.511719 -8.929688 0.964844 -7.671875 0.964844 -5.792969 C 0.964844 -5 1.238281 -4.304688 1.703125 -3.769531 C 1.195312 -3.332031 0.976562 -2.804688 0.976562 -2.152344 C 0.976562 -1.273438 1.386719 -0.730469 1.976562 -0.386719 L 0.871094 0.675781 C 0.851562 0.78125 0.84375 0.878906 0.84375 1.035156 C 0.84375 2.769531 2.347656 4.085938 4.78125 4.085938 C 6.777344 4.085938 8.464844 3.179688 8.464844 1.292969 C 8.464844 -0.710938 6.660156 -1.011719 4.9375 -1.246094 Z M 4.429688 -7.601562 C 5.5 -7.601562 6.132812 -6.8125 6.132812 -5.792969 C 6.132812 -4.738281 5.5 -4.015625 4.429688 -4.015625 C 3.347656 -4.015625 2.714844 -4.738281 2.714844 -5.792969 C 2.714844 -6.792969 3.347656 -7.601562 4.429688 -7.601562 Z M 4.84375 2.679688 C 3.347656 2.679688 2.390625 1.996094 2.328125 1.070312 L 3.074219 0.0429688 C 3.515625 0.148438 3.964844 0.21875 4.386719 0.28125 C 5.828125 0.492188 6.890625 0.5625 6.890625 1.457031 C 6.890625 2.265625 5.976562 2.679688 4.84375 2.679688 Z M 4.84375 2.679688 "/></g></g><g transform="translate(232.526355, 118.200067)"><g><path d="M 1.386719 0 L 3.074219 0 L 3.074219 -4.675781 C 3.074219 -6.546875 4.023438 -7.425781 5.316406 -7.425781 C 6.652344 -7.425781 7.164062 -6.292969 7.164062 -5.113281 L 7.164062 0 L 8.851562 0 L 8.851562 -5.308594 C 8.851562 -7.199219 7.980469 -8.945312 5.792969 -8.945312 C 4.710938 -8.945312 3.71875 -8.4375 3.074219 -7.488281 L 3.074219 -8.78125 L 1.386719 -8.78125 Z M 1.386719 0 "/></g></g></g><g fill="#f4f6fc" fill-opacity="1"><g transform="translate(242.531238, 118.200067)"><g/></g></g><g fill="#f4f6fc" fill-opacity="1"><g transform="translate(112.171872, 160.350064)"><g><path d="M 4.050781 0 L 5.871094 0 L 8.746094 -8.851562 L 11.59375 0 L 13.421875 0 L 17.023438 -12.417969 L 15.167969 -12.417969 L 12.375 -2.441406 L 9.4375 -11.699219 L 8.03125 -11.699219 L 5.097656 -2.441406 L 2.292969 -12.417969 L 0.449219 -12.417969 Z M 4.050781 0 "/></g></g><g transform="translate(129.635738, 160.350064)"><g><path d="M 4.84375 0.148438 C 6.273438 0.148438 7.355469 -0.308594 8.3125 -1.316406 L 7.136719 -2.3125 C 6.484375 -1.597656 5.746094 -1.371094 4.84375 -1.371094 C 3.277344 -1.371094 2.53125 -2.453125 2.453125 -3.832031 L 8.523438 -3.832031 C 8.550781 -3.972656 8.578125 -4.289062 8.578125 -4.578125 C 8.578125 -6.574219 7.65625 -8.929688 4.691406 -8.929688 C 1.949219 -8.929688 0.648438 -6.671875 0.648438 -4.351562 C 0.648438 -1.976562 2.003906 0.148438 4.84375 0.148438 Z M 2.453125 -5.125 C 2.574219 -6.425781 3.242188 -7.515625 4.683594 -7.515625 C 6.167969 -7.515625 6.847656 -6.460938 6.925781 -5.125 Z M 2.453125 -5.125 "/></g></g><g transform="translate(138.873042, 160.350064)"><g><path d="M 5.757812 0.175781 C 8.113281 0.175781 9.394531 -1.925781 9.394531 -4.394531 C 9.394531 -6.871094 8.113281 -8.964844 5.738281 -8.964844 C 4.621094 -8.964844 3.726562 -8.515625 3.136719 -7.734375 L 3.136719 -12.417969 L 1.40625 -12.417969 L 1.40625 0 L 3.136719 0 L 3.136719 -1.054688 C 3.726562 -0.253906 4.648438 0.175781 5.757812 0.175781 Z M 5.324219 -1.34375 C 3.699219 -1.34375 2.980469 -2.75 2.980469 -4.394531 C 2.980469 -6.027344 3.699219 -7.460938 5.324219 -7.460938 C 6.953125 -7.460938 7.691406 -6.019531 7.691406 -4.394531 C 7.691406 -2.757812 6.953125 -1.34375 5.324219 -1.34375 Z M 5.324219 -1.34375 "/></g></g></g><g fill="#f4f6fc" fill-opacity="1"><g transform="translate(148.980463, 160.350064)"><g/></g></g><g fill="#f4f6fc" fill-opacity="1"><g transform="translate(153.533197, 160.350064)"><g><path d="M 1.738281 0 L 5.089844 0 C 9.175781 0 11.460938 -2.222656 11.460938 -6.117188 C 11.460938 -10.175781 9.238281 -12.417969 5.105469 -12.417969 L 1.738281 -12.417969 Z M 3.523438 -1.632812 L 3.523438 -10.792969 L 5.070312 -10.792969 C 8.253906 -10.792969 9.675781 -9.296875 9.675781 -6.214844 C 9.675781 -2.945312 7.699219 -1.632812 4.878906 -1.632812 Z M 3.523438 -1.632812 "/></g></g><g transform="translate(165.899407, 160.350064)"><g><path d="M 4.84375 0.148438 C 6.273438 0.148438 7.355469 -0.308594 8.3125 -1.316406 L 7.136719 -2.3125 C 6.484375 -1.597656 5.746094 -1.371094 4.84375 -1.371094 C 3.277344 -1.371094 2.53125 -2.453125 2.453125 -3.832031 L 8.523438 -3.832031 C 8.550781 -3.972656 8.578125 -4.289062 8.578125 -4.578125 C 8.578125 -6.574219 7.65625 -8.929688 4.691406 -8.929688 C 1.949219 -8.929688 0.648438 -6.671875 0.648438 -4.351562 C 0.648438 -1.976562 2.003906 0.148438 4.84375 0.148438 Z M 2.453125 -5.125 C 2.574219 -6.425781 3.242188 -7.515625 4.683594 -7.515625 C 6.167969 -7.515625 6.847656 -6.460938 6.925781 -5.125 Z M 2.453125 -5.125 "/></g></g></g><g fill="#f4f6fc" fill-opacity="1"><g transform="translate(175.136711, 160.350064)"><g><path d="M 3.558594 0 L 5 0 L 8.410156 -8.78125 L 6.582031 -8.78125 L 4.28125 -2.207031 L 1.996094 -8.78125 L 0.132812 -8.78125 Z M 3.558594 0 "/></g></g></g><g fill="#f4f6fc" fill-opacity="1"><g transform="translate(183.679679, 160.350064)"><g><path d="M 4.84375 0.148438 C 6.273438 0.148438 7.355469 -0.308594 8.3125 -1.316406 L 7.136719 -2.3125 C 6.484375 -1.597656 5.746094 -1.371094 4.84375 -1.371094 C 3.277344 -1.371094 2.53125 -2.453125 2.453125 -3.832031 L 8.523438 -3.832031 C 8.550781 -3.972656 8.578125 -4.289062 8.578125 -4.578125 C 8.578125 -6.574219 7.65625 -8.929688 4.691406 -8.929688 C 1.949219 -8.929688 0.648438 -6.671875 0.648438 -4.351562 C 0.648438 -1.976562 2.003906 0.148438 4.84375 0.148438 Z M 2.453125 -5.125 C 2.574219 -6.425781 3.242188 -7.515625 4.683594 -7.515625 C 6.167969 -7.515625 6.847656 -6.460938 6.925781 -5.125 Z M 2.453125 -5.125 "/></g></g><g transform="translate(192.916983, 160.350064)"><g><path d="M 2.960938 0.175781 C 3.4375 0.175781 3.980469 0.0859375 4.339844 0 L 4.339844 -1.40625 C 4.128906 -1.363281 3.832031 -1.335938 3.613281 -1.335938 C 3.171875 -1.335938 3.050781 -1.730469 3.050781 -1.871094 L 3.050781 -12.417969 L 1.34375 -12.417969 L 1.34375 -1.757812 C 1.34375 -0.472656 1.785156 0.175781 2.960938 0.175781 Z M 2.960938 0.175781 "/></g></g><g transform="translate(197.698233, 160.350064)"><g><path d="M 4.921875 0.175781 C 7.503906 0.175781 9.253906 -1.914062 9.253906 -4.410156 C 9.253906 -6.898438 7.503906 -8.964844 4.921875 -8.964844 C 2.328125 -8.964844 0.605469 -6.898438 0.605469 -4.410156 C 0.605469 -1.914062 2.328125 0.175781 4.921875 0.175781 Z M 4.929688 -1.265625 C 3.136719 -1.265625 2.363281 -2.792969 2.363281 -4.410156 C 2.363281 -6.019531 3.136719 -7.515625 4.929688 -7.515625 C 6.730469 -7.515625 7.496094 -6.019531 7.496094 -4.410156 C 7.496094 -2.8125 6.730469 -1.265625 4.929688 -1.265625 Z M 4.929688 -1.265625 "/></g></g><g transform="translate(207.56835, 160.350064)"><g><path d="M 1.40625 3.847656 L 3.121094 3.847656 L 3.121094 -1.054688 C 3.726562 -0.226562 4.691406 0.175781 5.722656 0.175781 C 8.113281 0.175781 9.386719 -1.933594 9.386719 -4.394531 C 9.386719 -6.882812 8.101562 -8.964844 5.703125 -8.964844 C 4.640625 -8.964844 3.707031 -8.535156 3.121094 -7.734375 L 3.121094 -8.78125 L 1.40625 -8.78125 Z M 5.308594 -1.34375 C 3.671875 -1.34375 2.960938 -2.75 2.960938 -4.394531 C 2.960938 -6.027344 3.671875 -7.46875 5.308594 -7.46875 C 6.941406 -7.46875 7.664062 -6.027344 7.664062 -4.394531 C 7.664062 -2.75 6.941406 -1.34375 5.308594 -1.34375 Z M 5.308594 -1.34375 "/></g></g><g transform="translate(217.666982, 160.350064)"><g><path d="M 1.386719 0 L 3.101562 0 L 3.101562 -4.691406 C 3.101562 -6.082031 3.839844 -7.433594 5.160156 -7.433594 C 6.476562 -7.433594 6.792969 -6.285156 6.792969 -5.148438 L 6.792969 0 L 8.515625 0 L 8.515625 -4.84375 C 8.515625 -6.160156 9.253906 -7.433594 10.5625 -7.433594 C 11.890625 -7.433594 12.226562 -6.25 12.226562 -5.113281 L 12.226562 0 L 13.957031 0 L 13.957031 -5.308594 C 13.957031 -7.214844 13.023438 -8.964844 10.808594 -8.964844 C 9.625 -8.964844 8.613281 -8.394531 7.996094 -7.257812 C 7.496094 -8.417969 6.574219 -8.964844 5.414062 -8.964844 C 4.445312 -8.964844 3.558594 -8.453125 3.101562 -7.628906 L 3.101562 -8.78125 L 1.386719 -8.78125 Z M 1.386719 0 "/></g></g><g transform="translate(232.775379, 160.350064)"><g><path d="M 4.84375 0.148438 C 6.273438 0.148438 7.355469 -0.308594 8.3125 -1.316406 L 7.136719 -2.3125 C 6.484375 -1.597656 5.746094 -1.371094 4.84375 -1.371094 C 3.277344 -1.371094 2.53125 -2.453125 2.453125 -3.832031 L 8.523438 -3.832031 C 8.550781 -3.972656 8.578125 -4.289062 8.578125 -4.578125 C 8.578125 -6.574219 7.65625 -8.929688 4.691406 -8.929688 C 1.949219 -8.929688 0.648438 -6.671875 0.648438 -4.351562 C 0.648438 -1.976562 2.003906 0.148438 4.84375 0.148438 Z M 2.453125 -5.125 C 2.574219 -6.425781 3.242188 -7.515625 4.683594 -7.515625 C 6.167969 -7.515625 6.847656 -6.460938 6.925781 -5.125 Z M 2.453125 -5.125 "/></g></g><g transform="translate(242.012683, 160.350064)"><g><path d="M 1.386719 0 L 3.074219 0 L 3.074219 -4.675781 C 3.074219 -6.546875 4.023438 -7.425781 5.316406 -7.425781 C 6.652344 -7.425781 7.164062 -6.292969 7.164062 -5.113281 L 7.164062 0 L 8.851562 0 L 8.851562 -5.308594 C 8.851562 -7.199219 7.980469 -8.945312 5.792969 -8.945312 C 4.710938 -8.945312 3.71875 -8.4375 3.074219 -7.488281 L 3.074219 -8.78125 L 1.386719 -8.78125 Z M 1.386719 0 "/></g></g></g><g fill="#f4f6fc" fill-opacity="1"><g transform="translate(252.023425, 160.350064)"><g><path d="M 4.140625 0.175781 C 4.710938 0.175781 5.253906 0.0625 5.511719 -0.0429688 L 5.511719 -1.554688 C 5.230469 -1.414062 4.832031 -1.28125 4.464844 -1.28125 C 3.867188 -1.28125 3.410156 -1.644531 3.410156 -2.546875 L 3.410156 -7.363281 L 5.632812 -7.363281 L 5.632812 -8.78125 L 3.410156 -8.78125 L 3.410156 -12.226562 L 1.738281 -10.855469 L 1.738281 -8.78125 L 0.308594 -8.78125 L 0.308594 -7.363281 L 1.722656 -7.363281 L 1.722656 -2.371094 C 1.722656 -0.824219 2.503906 0.175781 4.140625 0.175781 Z M 4.140625 0.175781 "/></g></g></g><g fill="#f4f6fc" fill-opacity="1"><g transform="translate(258.269522, 160.350064)"><g/></g></g><g fill="#f4f6fc" fill-opacity="1"><g transform="translate(92.592771, 341.999978)"><g><path d="M 1.449219 0 L 7.367188 0 L 7.367188 -1.382812 L 2.9375 -1.382812 L 2.9375 -10.347656 L 1.449219 -10.347656 Z M 1.449219 0 "/></g></g><g transform="translate(100.275876, 341.999978)"><g><path d="M 4.035156 0.125 C 5.230469 0.125 6.128906 -0.257812 6.929688 -1.097656 L 5.945312 -1.925781 C 5.40625 -1.332031 4.789062 -1.140625 4.035156 -1.140625 C 2.730469 -1.140625 2.109375 -2.042969 2.042969 -3.191406 L 7.105469 -3.191406 C 7.125 -3.308594 7.148438 -3.574219 7.148438 -3.816406 C 7.148438 -5.476562 6.378906 -7.441406 3.910156 -7.441406 C 1.625 -7.441406 0.542969 -5.558594 0.542969 -3.625 C 0.542969 -1.648438 1.667969 0.125 4.035156 0.125 Z M 2.042969 -4.269531 C 2.144531 -5.355469 2.703125 -6.261719 3.902344 -6.261719 C 5.140625 -6.261719 5.707031 -5.382812 5.769531 -4.269531 Z M 2.042969 -4.269531 "/></g></g></g><g fill="#f4f6fc" fill-opacity="1"><g transform="translate(107.97363, 341.999978)"><g><path d="M 3.449219 0.144531 C 3.925781 0.144531 4.378906 0.0507812 4.59375 -0.0351562 L 4.59375 -1.296875 C 4.359375 -1.179688 4.027344 -1.070312 3.71875 -1.070312 C 3.222656 -1.070312 2.839844 -1.371094 2.839844 -2.125 L 2.839844 -6.136719 L 4.695312 -6.136719 L 4.695312 -7.316406 L 2.839844 -7.316406 L 2.839844 -10.1875 L 1.449219 -9.046875 L 1.449219 -7.316406 L 0.257812 -7.316406 L 0.257812 -6.136719 L 1.433594 -6.136719 L 1.433594 -1.976562 C 1.433594 -0.6875 2.085938 0.144531 3.449219 0.144531 Z M 3.449219 0.144531 "/></g></g></g><g fill="#f4f6fc" fill-opacity="1"><g transform="translate(113.181149, 341.999978)"><g><path d="M 0.367188 -8.230469 L 1.5 -8.230469 L 3.632812 -10.347656 L 1.984375 -10.347656 Z M 0.367188 -8.230469 "/></g></g></g><g fill="#f4f6fc" fill-opacity="1"><g transform="translate(117.092281, 341.999978)"><g><path d="M 3.265625 0.144531 C 4.585938 0.144531 5.933594 -0.585938 5.933594 -2.191406 C 5.933594 -4.871094 2.09375 -4.085938 2.09375 -5.507812 C 2.09375 -5.984375 2.527344 -6.34375 3.214844 -6.34375 C 4.007812 -6.34375 4.480469 -5.902344 4.769531 -5.355469 L 5.84375 -5.945312 C 5.347656 -6.878906 4.453125 -7.46875 3.265625 -7.46875 C 1.941406 -7.46875 0.761719 -6.746094 0.761719 -5.324219 C 0.761719 -2.796875 4.546875 -3.699219 4.546875 -2.074219 C 4.546875 -1.472656 4.058594 -1.023438 3.230469 -1.023438 C 2.25 -1.023438 1.757812 -1.664062 1.53125 -2.320312 L 0.375 -1.78125 C 0.71875 -0.730469 1.808594 0.144531 3.265625 0.144531 Z M 3.265625 0.144531 "/></g></g></g><g fill="#f4f6fc" fill-opacity="1"><g transform="translate(127.390132, 341.999978)"><g><path d="M 3.449219 0.144531 C 3.925781 0.144531 4.378906 0.0507812 4.59375 -0.0351562 L 4.59375 -1.296875 C 4.359375 -1.179688 4.027344 -1.070312 3.71875 -1.070312 C 3.222656 -1.070312 2.839844 -1.371094 2.839844 -2.125 L 2.839844 -6.136719 L 4.695312 -6.136719 L 4.695312 -7.316406 L 2.839844 -7.316406 L 2.839844 -10.1875 L 1.449219 -9.046875 L 1.449219 -7.316406 L 0.257812 -7.316406 L 0.257812 -6.136719 L 1.433594 -6.136719 L 1.433594 -1.976562 C 1.433594 -0.6875 2.085938 0.144531 3.449219 0.144531 Z M 3.449219 0.144531 "/></g></g></g><g fill="#f4f6fc" fill-opacity="1"><g transform="translate(132.597651, 341.999978)"><g><path d="M 2.996094 0.144531 C 3.953125 0.144531 4.847656 -0.226562 5.425781 -1.238281 L 5.5 0 L 6.679688 0 L 6.679688 -4.46875 C 6.679688 -6.246094 5.601562 -7.46875 3.675781 -7.46875 C 2.359375 -7.46875 1.441406 -6.890625 0.769531 -5.953125 L 1.832031 -5.164062 C 2.167969 -5.683594 2.769531 -6.234375 3.714844 -6.234375 C 4.863281 -6.234375 5.347656 -5.433594 5.347656 -4.269531 L 3.566406 -4.269531 C 1.691406 -4.269531 0.492188 -3.660156 0.492188 -2.136719 C 0.492188 -0.6875 1.558594 0.144531 2.996094 0.144531 Z M 3.179688 -1.054688 C 2.453125 -1.054688 1.949219 -1.40625 1.949219 -2.09375 C 1.949219 -2.828125 2.519531 -3.222656 3.667969 -3.222656 L 5.347656 -3.222656 C 5.332031 -2.167969 4.453125 -1.054688 3.179688 -1.054688 Z M 3.179688 -1.054688 "/></g></g><g transform="translate(140.229487, 341.999978)"><g><path d="M 2.46875 0.144531 C 2.863281 0.144531 3.316406 0.0742188 3.617188 0 L 3.617188 -1.171875 C 3.441406 -1.136719 3.191406 -1.113281 3.011719 -1.113281 C 2.644531 -1.113281 2.542969 -1.441406 2.542969 -1.558594 L 2.542969 -10.347656 L 1.121094 -10.347656 L 1.121094 -1.464844 C 1.121094 -0.394531 1.488281 0.144531 2.46875 0.144531 Z M 2.46875 0.144531 "/></g></g><g transform="translate(144.213862, 341.999978)"><g><path d="M 1.171875 0 L 2.59375 0 L 2.59375 -2.144531 L 3.953125 -3.65625 L 6.144531 0 L 7.828125 0 L 4.878906 -4.5625 L 7.433594 -7.316406 L 5.617188 -7.316406 L 2.59375 -3.792969 L 2.59375 -10.347656 L 1.171875 -10.347656 Z M 1.171875 0 "/></g></g></g><g fill="#f4f6fc" fill-opacity="1"><g transform="translate(155.925287, 341.999978)"><g><path d="M 2.996094 0.144531 C 3.953125 0.144531 4.847656 -0.226562 5.425781 -1.238281 L 5.5 0 L 6.679688 0 L 6.679688 -4.46875 C 6.679688 -6.246094 5.601562 -7.46875 3.675781 -7.46875 C 2.359375 -7.46875 1.441406 -6.890625 0.769531 -5.953125 L 1.832031 -5.164062 C 2.167969 -5.683594 2.769531 -6.234375 3.714844 -6.234375 C 4.863281 -6.234375 5.347656 -5.433594 5.347656 -4.269531 L 3.566406 -4.269531 C 1.691406 -4.269531 0.492188 -3.660156 0.492188 -2.136719 C 0.492188 -0.6875 1.558594 0.144531 2.996094 0.144531 Z M 3.179688 -1.054688 C 2.453125 -1.054688 1.949219 -1.40625 1.949219 -2.09375 C 1.949219 -2.828125 2.519531 -3.222656 3.667969 -3.222656 L 5.347656 -3.222656 C 5.332031 -2.167969 4.453125 -1.054688 3.179688 -1.054688 Z M 3.179688 -1.054688 "/></g></g><g transform="translate(163.557122, 341.999978)"><g><path d="M 4.796875 0.144531 C 6.761719 0.144531 7.828125 -1.605469 7.828125 -3.660156 C 7.828125 -5.726562 6.761719 -7.46875 4.78125 -7.46875 C 3.851562 -7.46875 3.105469 -7.097656 2.613281 -6.445312 L 2.613281 -10.347656 L 1.171875 -10.347656 L 1.171875 0 L 2.613281 0 L 2.613281 -0.878906 C 3.105469 -0.210938 3.875 0.144531 4.796875 0.144531 Z M 4.4375 -1.121094 C 3.082031 -1.121094 2.484375 -2.292969 2.484375 -3.660156 C 2.484375 -5.023438 3.082031 -6.21875 4.4375 -6.21875 C 5.792969 -6.21875 6.410156 -5.015625 6.410156 -3.660156 C 6.410156 -2.300781 5.792969 -1.121094 4.4375 -1.121094 Z M 4.4375 -1.121094 "/></g></g><g transform="translate(171.979973, 341.999978)"><g><path d="M 4.101562 0.144531 C 6.253906 0.144531 7.710938 -1.597656 7.710938 -3.675781 C 7.710938 -5.75 6.253906 -7.46875 4.101562 -7.46875 C 1.941406 -7.46875 0.503906 -5.75 0.503906 -3.675781 C 0.503906 -1.597656 1.941406 0.144531 4.101562 0.144531 Z M 4.109375 -1.054688 C 2.613281 -1.054688 1.96875 -2.328125 1.96875 -3.675781 C 1.96875 -5.015625 2.613281 -6.261719 4.109375 -6.261719 C 5.609375 -6.261719 6.246094 -5.015625 6.246094 -3.675781 C 6.246094 -2.34375 5.609375 -1.054688 4.109375 -1.054688 Z M 4.109375 -1.054688 "/></g></g></g><g fill="#f4f6fc" fill-opacity="1"><g transform="translate(180.20507, 341.999978)"><g><path d="M 3.539062 0.152344 C 4.554688 0.152344 5.367188 -0.402344 5.769531 -1.0625 L 5.769531 0 L 7.199219 0 L 7.199219 -7.316406 L 5.769531 -7.316406 L 5.769531 -3.617188 C 5.769531 -1.867188 4.832031 -1.089844 3.816406 -1.089844 C 2.644531 -1.089844 2.378906 -2.066406 2.378906 -3.1875 L 2.378906 -7.316406 L 0.945312 -7.316406 L 0.945312 -3.25 C 0.945312 -1.253906 1.714844 0.152344 3.539062 0.152344 Z M 3.539062 0.152344 "/></g></g><g transform="translate(188.554679, 341.999978)"><g><path d="M 3.449219 0.144531 C 3.925781 0.144531 4.378906 0.0507812 4.59375 -0.0351562 L 4.59375 -1.296875 C 4.359375 -1.179688 4.027344 -1.070312 3.71875 -1.070312 C 3.222656 -1.070312 2.839844 -1.371094 2.839844 -2.125 L 2.839844 -6.136719 L 4.695312 -6.136719 L 4.695312 -7.316406 L 2.839844 -7.316406 L 2.839844 -10.1875 L 1.449219 -9.046875 L 1.449219 -7.316406 L 0.257812 -7.316406 L 0.257812 -6.136719 L 1.433594 -6.136719 L 1.433594 -1.976562 C 1.433594 -0.6875 2.085938 0.144531 3.449219 0.144531 Z M 3.449219 0.144531 "/></g></g></g><g fill="#f4f6fc" fill-opacity="1"><g transform="translate(197.556143, 341.999978)"><g><path d="M 1.65625 3.148438 L 3.179688 3.148438 L 7.222656 -7.316406 L 5.667969 -7.316406 L 3.683594 -1.757812 L 1.675781 -7.316406 L 0.117188 -7.316406 L 2.953125 -0.109375 Z M 1.65625 3.148438 "/></g></g></g><g fill="#f4f6fc" fill-opacity="1"><g transform="translate(204.89501, 341.999978)"><g><path d="M 4.101562 0.144531 C 6.253906 0.144531 7.710938 -1.597656 7.710938 -3.675781 C 7.710938 -5.75 6.253906 -7.46875 4.101562 -7.46875 C 1.941406 -7.46875 0.503906 -5.75 0.503906 -3.675781 C 0.503906 -1.597656 1.941406 0.144531 4.101562 0.144531 Z M 4.109375 -1.054688 C 2.613281 -1.054688 1.96875 -2.328125 1.96875 -3.675781 C 1.96875 -5.015625 2.613281 -6.261719 4.109375 -6.261719 C 5.609375 -6.261719 6.246094 -5.015625 6.246094 -3.675781 C 6.246094 -2.34375 5.609375 -1.054688 4.109375 -1.054688 Z M 4.109375 -1.054688 "/></g></g></g><g fill="#f4f6fc" fill-opacity="1"><g transform="translate(213.120107, 341.999978)"><g><path d="M 3.539062 0.152344 C 4.554688 0.152344 5.367188 -0.402344 5.769531 -1.0625 L 5.769531 0 L 7.199219 0 L 7.199219 -7.316406 L 5.769531 -7.316406 L 5.769531 -3.617188 C 5.769531 -1.867188 4.832031 -1.089844 3.816406 -1.089844 C 2.644531 -1.089844 2.378906 -2.066406 2.378906 -3.1875 L 2.378906 -7.316406 L 0.945312 -7.316406 L 0.945312 -3.25 C 0.945312 -1.253906 1.714844 0.152344 3.539062 0.152344 Z M 3.539062 0.152344 "/></g></g><g transform="translate(221.469716, 341.999978)"><g><path d="M 1.15625 0 L 2.535156 0 L 2.535156 -3.390625 C 2.535156 -5.199219 3.339844 -6.101562 4.394531 -6.101562 C 4.714844 -6.101562 5.003906 -6.011719 5.242188 -5.828125 L 5.867188 -7.023438 C 5.558594 -7.300781 5.113281 -7.46875 4.613281 -7.46875 C 3.742188 -7.46875 2.898438 -6.941406 2.546875 -6.050781 L 2.546875 -7.316406 L 1.15625 -7.316406 Z M 1.15625 0 "/></g></g></g><g fill="#f4f6fc" fill-opacity="1"><g transform="translate(231.159657, 341.999978)"><g><path d="M 1.171875 3.207031 L 2.601562 3.207031 L 2.601562 -0.878906 C 3.105469 -0.191406 3.910156 0.144531 4.769531 0.144531 C 6.761719 0.144531 7.820312 -1.609375 7.820312 -3.660156 C 7.820312 -5.734375 6.753906 -7.46875 4.753906 -7.46875 C 3.867188 -7.46875 3.089844 -7.113281 2.601562 -6.445312 L 2.601562 -7.316406 L 1.171875 -7.316406 Z M 4.421875 -1.121094 C 3.0625 -1.121094 2.46875 -2.292969 2.46875 -3.660156 C 2.46875 -5.023438 3.0625 -6.226562 4.421875 -6.226562 C 5.785156 -6.226562 6.386719 -5.023438 6.386719 -3.660156 C 6.386719 -2.292969 5.785156 -1.121094 4.421875 -1.121094 Z M 4.421875 -1.121094 "/></g></g></g><g fill="#f4f6fc" fill-opacity="1"><g transform="translate(239.575183, 341.999978)"><g><path d="M 1.15625 0 L 2.535156 0 L 2.535156 -3.390625 C 2.535156 -5.199219 3.339844 -6.101562 4.394531 -6.101562 C 4.714844 -6.101562 5.003906 -6.011719 5.242188 -5.828125 L 5.867188 -7.023438 C 5.558594 -7.300781 5.113281 -7.46875 4.613281 -7.46875 C 3.742188 -7.46875 2.898438 -6.941406 2.546875 -6.050781 L 2.546875 -7.316406 L 1.15625 -7.316406 Z M 1.15625 0 "/></g></g></g><g fill="#f4f6fc" fill-opacity="1"><g transform="translate(245.471179, 341.999978)"><g><path d="M 4.101562 0.144531 C 6.253906 0.144531 7.710938 -1.597656 7.710938 -3.675781 C 7.710938 -5.75 6.253906 -7.46875 4.101562 -7.46875 C 1.941406 -7.46875 0.503906 -5.75 0.503906 -3.675781 C 0.503906 -1.597656 1.941406 0.144531 4.101562 0.144531 Z M 4.109375 -1.054688 C 2.613281 -1.054688 1.96875 -2.328125 1.96875 -3.675781 C 1.96875 -5.015625 2.613281 -6.261719 4.109375 -6.261719 C 5.609375 -6.261719 6.246094 -5.015625 6.246094 -3.675781 C 6.246094 -2.34375 5.609375 -1.054688 4.109375 -1.054688 Z M 4.109375 -1.054688 "/></g></g><g transform="translate(253.696276, 341.999978)"><g><path d="M 1.121094 -8.855469 L 2.671875 -8.855469 L 2.671875 -10.347656 L 1.121094 -10.347656 Z M 0.613281 3.207031 C 2.015625 3.207031 2.613281 2.226562 2.613281 0.960938 L 2.613281 -7.316406 L 1.179688 -7.316406 L 1.179688 1.113281 C 1.179688 1.589844 1.003906 1.960938 0.519531 1.960938 C 0.308594 1.960938 0.0078125 1.898438 -0.234375 1.816406 L -0.5625 2.972656 C -0.261719 3.097656 0.242188 3.207031 0.613281 3.207031 Z M 0.613281 3.207031 "/></g></g><g transform="translate(257.468249, 341.999978)"><g><path d="M 4.035156 0.125 C 5.230469 0.125 6.128906 -0.257812 6.929688 -1.097656 L 5.945312 -1.925781 C 5.40625 -1.332031 4.789062 -1.140625 4.035156 -1.140625 C 2.730469 -1.140625 2.109375 -2.042969 2.042969 -3.191406 L 7.105469 -3.191406 C 7.125 -3.308594 7.148438 -3.574219 7.148438 -3.816406 C 7.148438 -5.476562 6.378906 -7.441406 3.910156 -7.441406 C 1.625 -7.441406 0.542969 -5.558594 0.542969 -3.625 C 0.542969 -1.648438 1.667969 0.125 4.035156 0.125 Z M 2.042969 -4.269531 C 2.144531 -5.355469 2.703125 -6.261719 3.902344 -6.261719 C 5.140625 -6.261719 5.707031 -5.382812 5.769531 -4.269531 Z M 2.042969 -4.269531 "/></g></g><g transform="translate(265.166002, 341.999978)"><g><path d="M 3.902344 0.144531 C 5.289062 0.144531 6.351562 -0.613281 6.804688 -1.902344 L 5.542969 -2.410156 C 5.332031 -1.625 4.695312 -1.097656 3.890625 -1.097656 C 2.488281 -1.097656 2 -2.417969 2 -3.648438 C 2 -4.863281 2.503906 -6.21875 3.890625 -6.21875 C 4.703125 -6.21875 5.332031 -5.683594 5.542969 -4.878906 L 6.882812 -5.425781 C 6.351562 -6.746094 5.273438 -7.46875 3.890625 -7.46875 C 1.648438 -7.46875 0.554688 -5.589844 0.554688 -3.648438 C 0.554688 -1.683594 1.664062 0.144531 3.902344 0.144531 Z M 3.902344 0.144531 "/></g></g></g><g fill="#f4f6fc" fill-opacity="1"><g transform="translate(272.40233, 341.999978)"><g><path d="M 3.449219 0.144531 C 3.925781 0.144531 4.378906 0.0507812 4.59375 -0.0351562 L 4.59375 -1.296875 C 4.359375 -1.179688 4.027344 -1.070312 3.71875 -1.070312 C 3.222656 -1.070312 2.839844 -1.371094 2.839844 -2.125 L 2.839844 -6.136719 L 4.695312 -6.136719 L 4.695312 -7.316406 L 2.839844 -7.316406 L 2.839844 -10.1875 L 1.449219 -9.046875 L 1.449219 -7.316406 L 0.257812 -7.316406 L 0.257812 -6.136719 L 1.433594 -6.136719 L 1.433594 -1.976562 C 1.433594 -0.6875 2.085938 0.144531 3.449219 0.144531 Z M 3.449219 0.144531 "/></g></g></g><g fill="#f4f6fc" fill-opacity="1"><g transform="translate(277.609849, 341.999978)"><g><path d="M 1.589844 0 L 3.207031 0 L 3.207031 -1.664062 L 1.589844 -1.664062 Z M 1.589844 0 "/></g></g></g><g fill="#f4f6fc" fill-opacity="1"><g transform="translate(120.017574, 202.500061)"><g><path d="M 1.738281 0 L 3.523438 0 L 3.523438 -5.421875 L 9.324219 -5.421875 L 9.324219 -7.003906 L 3.523438 -7.003906 L 3.523438 -10.820312 L 10.097656 -10.820312 L 10.097656 -12.417969 L 1.738281 -12.417969 Z M 1.738281 0 "/></g></g><g transform="translate(130.687495, 202.500061)"><g><path d="M 3.59375 0.175781 C 4.746094 0.175781 5.816406 -0.273438 6.511719 -1.484375 L 6.601562 0 L 8.015625 0 L 8.015625 -5.359375 C 8.015625 -7.496094 6.722656 -8.964844 4.410156 -8.964844 C 2.828125 -8.964844 1.730469 -8.269531 0.921875 -7.144531 L 2.195312 -6.195312 C 2.601562 -6.820312 3.320312 -7.480469 4.457031 -7.480469 C 5.835938 -7.480469 6.414062 -6.519531 6.414062 -5.125 L 4.28125 -5.125 C 2.03125 -5.125 0.589844 -4.394531 0.589844 -2.566406 C 0.589844 -0.824219 1.871094 0.175781 3.59375 0.175781 Z M 3.8125 -1.265625 C 2.945312 -1.265625 2.335938 -1.6875 2.335938 -2.511719 C 2.335938 -3.390625 3.023438 -3.867188 4.402344 -3.867188 L 6.414062 -3.867188 C 6.398438 -2.601562 5.34375 -1.265625 3.8125 -1.265625 Z M 3.8125 -1.265625 "/></g></g></g><g fill="#f4f6fc" fill-opacity="1"><g transform="translate(139.845698, 202.500061)"><g><path d="M 3.917969 0.175781 C 5.5 0.175781 7.117188 -0.703125 7.117188 -2.628906 C 7.117188 -5.84375 2.511719 -4.902344 2.511719 -6.609375 C 2.511719 -7.179688 3.03125 -7.609375 3.859375 -7.609375 C 4.808594 -7.609375 5.378906 -7.082031 5.722656 -6.425781 L 7.011719 -7.136719 C 6.414062 -8.253906 5.34375 -8.964844 3.917969 -8.964844 C 2.328125 -8.964844 0.914062 -8.09375 0.914062 -6.390625 C 0.914062 -3.355469 5.457031 -4.4375 5.457031 -2.488281 C 5.457031 -1.765625 4.867188 -1.230469 3.875 -1.230469 C 2.699219 -1.230469 2.109375 -1.996094 1.835938 -2.785156 L 0.449219 -2.136719 C 0.859375 -0.878906 2.171875 0.175781 3.917969 0.175781 Z M 3.917969 0.175781 "/></g></g><g transform="translate(147.650385, 202.500061)"><g><path d="M 4.140625 0.175781 C 4.710938 0.175781 5.253906 0.0625 5.511719 -0.0429688 L 5.511719 -1.554688 C 5.230469 -1.414062 4.832031 -1.28125 4.464844 -1.28125 C 3.867188 -1.28125 3.410156 -1.644531 3.410156 -2.546875 L 3.410156 -7.363281 L 5.632812 -7.363281 L 5.632812 -8.78125 L 3.410156 -8.78125 L 3.410156 -12.226562 L 1.738281 -10.855469 L 1.738281 -8.78125 L 0.308594 -8.78125 L 0.308594 -7.363281 L 1.722656 -7.363281 L 1.722656 -2.371094 C 1.722656 -0.824219 2.503906 0.175781 4.140625 0.175781 Z M 4.140625 0.175781 "/></g></g></g><g fill="#f4f6fc" fill-opacity="1"><g transform="translate(153.899408, 202.500061)"><g/></g></g><g fill="#f4f6fc" fill-opacity="1"><g transform="translate(158.452142, 202.500061)"><g><path d="M 1.738281 0 L 3.515625 0 L 3.515625 -5.394531 L 5.414062 -5.394531 C 7.882812 -5.394531 9.578125 -6.625 9.578125 -8.875 C 9.578125 -11.109375 7.882812 -12.417969 5.414062 -12.417969 L 1.738281 -12.417969 Z M 3.515625 -7.03125 L 3.515625 -10.785156 L 5.414062 -10.785156 C 7.003906 -10.785156 7.8125 -10.082031 7.8125 -8.875 C 7.8125 -7.65625 7.011719 -7.03125 5.414062 -7.03125 Z M 3.515625 -7.03125 "/></g></g></g><g fill="#f4f6fc" fill-opacity="1"><g transform="translate(168.621087, 202.500061)"><g><path d="M 1.386719 0 L 3.039062 0 L 3.039062 -4.070312 C 3.039062 -6.238281 4.007812 -7.320312 5.273438 -7.320312 C 5.660156 -7.320312 6.003906 -7.214844 6.292969 -6.996094 L 7.039062 -8.429688 C 6.671875 -8.761719 6.132812 -8.964844 5.535156 -8.964844 C 4.492188 -8.964844 3.480469 -8.332031 3.058594 -7.257812 L 3.058594 -8.78125 L 1.386719 -8.78125 Z M 1.386719 0 "/></g></g></g><g fill="#f4f6fc" fill-opacity="1"><g transform="translate(175.696282, 202.500061)"><g><path d="M 4.921875 0.175781 C 7.503906 0.175781 9.253906 -1.914062 9.253906 -4.410156 C 9.253906 -6.898438 7.503906 -8.964844 4.921875 -8.964844 C 2.328125 -8.964844 0.605469 -6.898438 0.605469 -4.410156 C 0.605469 -1.914062 2.328125 0.175781 4.921875 0.175781 Z M 4.929688 -1.265625 C 3.136719 -1.265625 2.363281 -2.792969 2.363281 -4.410156 C 2.363281 -6.019531 3.136719 -7.515625 4.929688 -7.515625 C 6.730469 -7.515625 7.496094 -6.019531 7.496094 -4.410156 C 7.496094 -2.8125 6.730469 -1.265625 4.929688 -1.265625 Z M 4.929688 -1.265625 "/></g></g></g><g fill="#f4f6fc" fill-opacity="1"><g transform="translate(185.566398, 202.500061)"><g><path d="M 4.140625 0.175781 C 4.710938 0.175781 5.253906 0.0625 5.511719 -0.0429688 L 5.511719 -1.554688 C 5.230469 -1.414062 4.832031 -1.28125 4.464844 -1.28125 C 3.867188 -1.28125 3.410156 -1.644531 3.410156 -2.546875 L 3.410156 -7.363281 L 5.632812 -7.363281 L 5.632812 -8.78125 L 3.410156 -8.78125 L 3.410156 -12.226562 L 1.738281 -10.855469 L 1.738281 -8.78125 L 0.308594 -8.78125 L 0.308594 -7.363281 L 1.722656 -7.363281 L 1.722656 -2.371094 C 1.722656 -0.824219 2.503906 0.175781 4.140625 0.175781 Z M 4.140625 0.175781 "/></g></g></g><g fill="#f4f6fc" fill-opacity="1"><g transform="translate(191.815421, 202.500061)"><g><path d="M 4.921875 0.175781 C 7.503906 0.175781 9.253906 -1.914062 9.253906 -4.410156 C 9.253906 -6.898438 7.503906 -8.964844 4.921875 -8.964844 C 2.328125 -8.964844 0.605469 -6.898438 0.605469 -4.410156 C 0.605469 -1.914062 2.328125 0.175781 4.921875 0.175781 Z M 4.929688 -1.265625 C 3.136719 -1.265625 2.363281 -2.792969 2.363281 -4.410156 C 2.363281 -6.019531 3.136719 -7.515625 4.929688 -7.515625 C 6.730469 -7.515625 7.496094 -6.019531 7.496094 -4.410156 C 7.496094 -2.8125 6.730469 -1.265625 4.929688 -1.265625 Z M 4.929688 -1.265625 "/></g></g></g><g fill="#f4f6fc" fill-opacity="1"><g transform="translate(201.685538, 202.500061)"><g><path d="M 4.140625 0.175781 C 4.710938 0.175781 5.253906 0.0625 5.511719 -0.0429688 L 5.511719 -1.554688 C 5.230469 -1.414062 4.832031 -1.28125 4.464844 -1.28125 C 3.867188 -1.28125 3.410156 -1.644531 3.410156 -2.546875 L 3.410156 -7.363281 L 5.632812 -7.363281 L 5.632812 -8.78125 L 3.410156 -8.78125 L 3.410156 -12.226562 L 1.738281 -10.855469 L 1.738281 -8.78125 L 0.308594 -8.78125 L 0.308594 -7.363281 L 1.722656 -7.363281 L 1.722656 -2.371094 C 1.722656 -0.824219 2.503906 0.175781 4.140625 0.175781 Z M 4.140625 0.175781 "/></g></g><g transform="translate(207.934561, 202.500061)"><g><path d="M 1.984375 3.777344 L 3.8125 3.777344 L 8.664062 -8.78125 L 6.800781 -8.78125 L 4.421875 -2.109375 L 2.011719 -8.78125 L 0.140625 -8.78125 L 3.542969 -0.132812 Z M 1.984375 3.777344 "/></g></g></g><g fill="#f4f6fc" fill-opacity="1"><g transform="translate(216.741201, 202.500061)"><g><path d="M 1.40625 3.847656 L 3.121094 3.847656 L 3.121094 -1.054688 C 3.726562 -0.226562 4.691406 0.175781 5.722656 0.175781 C 8.113281 0.175781 9.386719 -1.933594 9.386719 -4.394531 C 9.386719 -6.882812 8.101562 -8.964844 5.703125 -8.964844 C 4.640625 -8.964844 3.707031 -8.535156 3.121094 -7.734375 L 3.121094 -8.78125 L 1.40625 -8.78125 Z M 5.308594 -1.34375 C 3.671875 -1.34375 2.960938 -2.75 2.960938 -4.394531 C 2.960938 -6.027344 3.671875 -7.46875 5.308594 -7.46875 C 6.941406 -7.46875 7.664062 -6.027344 7.664062 -4.394531 C 7.664062 -2.75 6.941406 -1.34375 5.308594 -1.34375 Z M 5.308594 -1.34375 "/></g></g><g transform="translate(226.839833, 202.500061)"><g><path d="M 1.316406 -10.589844 L 3.15625 -10.589844 L 3.15625 -12.417969 L 1.316406 -12.417969 Z M 1.386719 0 L 3.085938 0 L 3.085938 -8.78125 L 1.386719 -8.78125 Z M 1.386719 0 "/></g></g><g transform="translate(231.313465, 202.500061)"><g><path d="M 1.386719 0 L 3.074219 0 L 3.074219 -4.675781 C 3.074219 -6.546875 4.023438 -7.425781 5.316406 -7.425781 C 6.652344 -7.425781 7.164062 -6.292969 7.164062 -5.113281 L 7.164062 0 L 8.851562 0 L 8.851562 -5.308594 C 8.851562 -7.199219 7.980469 -8.945312 5.792969 -8.945312 C 4.710938 -8.945312 3.71875 -8.4375 3.074219 -7.488281 L 3.074219 -8.78125 L 1.386719 -8.78125 Z M 1.386719 0 "/></g></g><g transform="translate(241.324207, 202.500061)"><g><path d="M 4.9375 -1.246094 C 3.542969 -1.433594 2.453125 -1.574219 2.453125 -2.398438 C 2.453125 -2.644531 2.566406 -2.828125 2.777344 -2.96875 C 3.269531 -2.742188 3.832031 -2.617188 4.4375 -2.617188 C 6.308594 -2.617188 7.832031 -3.804688 7.832031 -5.722656 C 7.832031 -6.265625 7.707031 -6.765625 7.480469 -7.199219 L 8.832031 -8.269531 L 7.910156 -9.414062 L 6.589844 -8.242188 C 6.003906 -8.683594 5.246094 -8.929688 4.402344 -8.929688 C 2.511719 -8.929688 0.964844 -7.671875 0.964844 -5.792969 C 0.964844 -5 1.238281 -4.304688 1.703125 -3.769531 C 1.195312 -3.332031 0.976562 -2.804688 0.976562 -2.152344 C 0.976562 -1.273438 1.386719 -0.730469 1.976562 -0.386719 L 0.871094 0.675781 C 0.851562 0.78125 0.84375 0.878906 0.84375 1.035156 C 0.84375 2.769531 2.347656 4.085938 4.78125 4.085938 C 6.777344 4.085938 8.464844 3.179688 8.464844 1.292969 C 8.464844 -0.710938 6.660156 -1.011719 4.9375 -1.246094 Z M 4.429688 -7.601562 C 5.5 -7.601562 6.132812 -6.8125 6.132812 -5.792969 C 6.132812 -4.738281 5.5 -4.015625 4.429688 -4.015625 C 3.347656 -4.015625 2.714844 -4.738281 2.714844 -5.792969 C 2.714844 -6.792969 3.347656 -7.601562 4.429688 -7.601562 Z M 4.84375 2.679688 C 3.347656 2.679688 2.390625 1.996094 2.328125 1.070312 L 3.074219 0.0429688 C 3.515625 0.148438 3.964844 0.21875 4.386719 0.28125 C 5.828125 0.492188 6.890625 0.5625 6.890625 1.457031 C 6.890625 2.265625 5.976562 2.679688 4.84375 2.679688 Z M 4.84375 2.679688 "/></g></g></g><g fill="#f4f6fc" fill-opacity="1"><g transform="translate(250.423816, 202.500061)"><g/></g></g><g clip-path="url(#id1)"><path fill="#f4f6fc" d="M 187.640625 268.203125 C 185.058594 268.203125 182.554688 267.699219 180.195312 266.699219 C 177.917969 265.738281 175.871094 264.359375 174.113281 262.601562 C 172.359375 260.847656 170.980469 258.800781 170.015625 256.523438 C 169.019531 254.164062 168.511719 251.660156 168.511719 249.078125 C 168.511719 246.496094 169.019531 243.992188 170.015625 241.632812 C 170.980469 239.355469 172.359375 237.308594 174.113281 235.550781 C 175.871094 233.796875 177.917969 232.417969 180.195312 231.453125 C 182.554688 230.457031 185.058594 229.949219 187.640625 229.949219 C 190.222656 229.949219 192.726562 230.457031 195.085938 231.453125 C 197.363281 232.417969 199.410156 233.796875 201.164062 235.550781 C 202.921875 237.308594 204.300781 239.355469 205.265625 241.632812 C 206.261719 243.992188 206.765625 246.496094 206.765625 249.078125 C 206.765625 251.660156 206.261719 254.164062 205.265625 256.523438 C 204.300781 258.800781 202.921875 260.847656 201.164062 262.601562 C 199.410156 264.359375 197.363281 265.738281 195.085938 266.699219 C 192.726562 267.699219 190.222656 268.203125 187.640625 268.203125 Z M 187.640625 231.144531 C 177.753906 231.144531 169.707031 239.191406 169.707031 249.078125 C 169.707031 258.964844 177.753906 267.007812 187.640625 267.007812 C 197.527344 267.007812 205.570312 258.964844 205.570312 249.078125 C 205.570312 239.191406 197.527344 231.144531 187.640625 231.144531 " fill-opacity="1" fill-rule="evenodd"/></g><path fill="#f4f6fc" d="M 187.640625 264.101562 C 185.613281 264.101562 183.644531 263.703125 181.792969 262.917969 C 180.003906 262.164062 178.394531 261.078125 177.015625 259.699219 C 175.636719 258.320312 174.554688 256.714844 173.796875 254.925781 C 173.015625 253.074219 172.617188 251.105469 172.617188 249.078125 C 172.617188 247.046875 173.011719 245.082031 173.796875 243.230469 C 174.554688 241.441406 175.636719 239.832031 177.015625 238.453125 C 178.394531 237.074219 180.003906 235.992188 181.792969 235.234375 C 183.644531 234.449219 185.613281 234.050781 187.640625 234.050781 C 189.667969 234.050781 191.636719 234.449219 193.488281 235.234375 C 195.277344 235.992188 196.882812 237.074219 198.265625 238.453125 C 199.644531 239.832031 200.726562 241.441406 201.484375 243.230469 C 202.265625 245.082031 202.664062 247.046875 202.664062 249.078125 C 202.664062 251.105469 202.265625 253.074219 201.484375 254.925781 C 200.726562 256.714844 199.644531 258.320312 198.265625 259.699219 C 196.882812 261.078125 195.277344 262.164062 193.488281 262.917969 C 191.636719 263.703125 189.667969 264.101562 187.640625 264.101562 Z M 187.640625 235.25 C 180.015625 235.25 173.8125 241.453125 173.8125 249.078125 C 173.8125 256.703125 180.015625 262.90625 187.640625 262.90625 C 195.265625 262.90625 201.46875 256.703125 201.46875 249.078125 C 201.46875 241.453125 195.265625 235.25 187.640625 235.25 " fill-opacity="1" fill-rule="evenodd"/><path fill="#f4f6fc" d="M 187.640625 242.644531 C 187.308594 242.644531 187.042969 242.378906 187.042969 242.046875 L 187.042969 238.6875 C 187.042969 238.355469 187.308594 238.089844 187.640625 238.089844 C 187.96875 238.089844 188.238281 238.355469 188.238281 238.6875 L 188.238281 242.046875 C 188.238281 242.378906 187.96875 242.644531 187.640625 242.644531 " fill-opacity="1" fill-rule="evenodd"/><path fill="#f4f6fc" d="M 184.109375 243.511719 C 183.902344 243.511719 183.699219 243.402344 183.589844 243.210938 L 181.910156 240.300781 C 181.742188 240.015625 181.839844 239.648438 182.128906 239.484375 C 182.414062 239.316406 182.777344 239.417969 182.945312 239.703125 L 184.625 242.613281 C 184.789062 242.898438 184.691406 243.265625 184.40625 243.429688 C 184.3125 243.484375 184.210938 243.511719 184.109375 243.511719 " fill-opacity="1" fill-rule="evenodd"/><path fill="#f4f6fc" d="M 181.480469 246.023438 C 181.378906 246.023438 181.273438 246 181.179688 245.945312 L 178.269531 244.265625 C 177.984375 244.097656 177.886719 243.734375 178.050781 243.445312 C 178.214844 243.160156 178.582031 243.0625 178.867188 243.230469 L 181.777344 244.910156 C 182.066406 245.074219 182.164062 245.441406 181.996094 245.726562 C 181.886719 245.917969 181.6875 246.023438 181.480469 246.023438 " fill-opacity="1" fill-rule="evenodd"/><path fill="#f4f6fc" d="M 180.460938 249.515625 L 177.101562 249.515625 C 176.769531 249.515625 176.503906 249.25 176.503906 248.917969 C 176.503906 248.589844 176.769531 248.320312 177.101562 248.320312 L 180.460938 248.320312 C 180.792969 248.320312 181.058594 248.589844 181.058594 248.917969 C 181.058594 249.25 180.792969 249.515625 180.460938 249.515625 " fill-opacity="1" fill-rule="evenodd"/><path fill="#f4f6fc" d="M 178.414062 254.730469 C 178.207031 254.730469 178.007812 254.625 177.898438 254.429688 C 177.730469 254.144531 177.828125 253.78125 178.113281 253.613281 L 181.027344 251.933594 C 181.3125 251.769531 181.679688 251.867188 181.84375 252.152344 C 182.007812 252.4375 181.910156 252.804688 181.625 252.96875 L 178.714844 254.648438 C 178.617188 254.703125 178.515625 254.730469 178.414062 254.730469 " fill-opacity="1" fill-rule="evenodd"/><path fill="#f4f6fc" d="M 182.160156 258.589844 C 182.058594 258.589844 181.953125 258.5625 181.859375 258.507812 C 181.574219 258.34375 181.476562 257.976562 181.640625 257.691406 L 183.324219 254.78125 C 183.488281 254.492188 183.855469 254.394531 184.140625 254.5625 C 184.425781 254.726562 184.523438 255.089844 184.359375 255.378906 L 182.675781 258.289062 C 182.566406 258.480469 182.367188 258.589844 182.160156 258.589844 " fill-opacity="1" fill-rule="evenodd"/><path fill="#f4f6fc" d="M 187.332031 260.054688 C 187.003906 260.054688 186.734375 259.789062 186.734375 259.460938 L 186.734375 256.097656 C 186.734375 255.765625 187.003906 255.5 187.332031 255.5 C 187.660156 255.5 187.929688 255.765625 187.929688 256.097656 L 187.929688 259.460938 C 187.929688 259.789062 187.664062 260.054688 187.332031 260.054688 " fill-opacity="1" fill-rule="evenodd"/><path fill="#f4f6fc" d="M 192.546875 258.742188 C 192.339844 258.742188 192.140625 258.636719 192.027344 258.441406 L 190.347656 255.53125 C 190.183594 255.246094 190.28125 254.878906 190.566406 254.714844 C 190.851562 254.550781 191.21875 254.648438 191.382812 254.933594 L 193.0625 257.847656 C 193.230469 258.132812 193.128906 258.496094 192.84375 258.664062 C 192.75 258.714844 192.648438 258.742188 192.546875 258.742188 " fill-opacity="1" fill-rule="evenodd"/><path fill="#f4f6fc" d="M 196.402344 254.996094 C 196.300781 254.996094 196.199219 254.972656 196.105469 254.917969 L 193.191406 253.234375 C 192.90625 253.070312 192.808594 252.707031 192.976562 252.417969 C 193.140625 252.132812 193.503906 252.035156 193.792969 252.199219 L 196.703125 253.882812 C 196.988281 254.046875 197.085938 254.414062 196.921875 254.699219 C 196.8125 254.890625 196.609375 254.996094 196.402344 254.996094 " fill-opacity="1" fill-rule="evenodd"/><path fill="#f4f6fc" d="M 197.871094 249.824219 L 194.511719 249.824219 C 194.179688 249.824219 193.914062 249.558594 193.914062 249.226562 C 193.914062 248.894531 194.179688 248.628906 194.511719 248.628906 L 197.871094 248.628906 C 198.203125 248.628906 198.46875 248.894531 198.46875 249.226562 C 198.46875 249.558594 198.203125 249.824219 197.871094 249.824219 " fill-opacity="1" fill-rule="evenodd"/><path fill="#f4f6fc" d="M 193.644531 246.292969 C 193.441406 246.292969 193.238281 246.183594 193.128906 245.992188 C 192.960938 245.707031 193.0625 245.339844 193.347656 245.175781 L 196.257812 243.496094 C 196.546875 243.328125 196.910156 243.429688 197.074219 243.714844 C 197.242188 244 197.140625 244.367188 196.855469 244.53125 L 193.945312 246.210938 C 193.851562 246.265625 193.75 246.292969 193.644531 246.292969 " fill-opacity="1" fill-rule="evenodd"/><path fill="#f4f6fc" d="M 191.132812 243.664062 C 191.03125 243.664062 190.925781 243.636719 190.832031 243.585938 C 190.546875 243.417969 190.449219 243.054688 190.613281 242.769531 L 192.296875 239.855469 C 192.460938 239.570312 192.824219 239.472656 193.113281 239.636719 C 193.398438 239.800781 193.496094 240.167969 193.332031 240.453125 L 191.648438 243.367188 C 191.539062 243.558594 191.335938 243.664062 191.132812 243.664062 " fill-opacity="1" fill-rule="evenodd"/></svg>